<?xml version="1.0" standalone="no"?>
<!DOCTYPE svg PUBLIC "-//W3C//DTD SVG 20010904//EN"
 "http://www.w3.org/TR/2001/REC-SVG-20010904/DTD/svg10.dtd">
<svg version="1.0" xmlns="http://www.w3.org/2000/svg"
 width="225.000000pt" height="225.000000pt" viewBox="0 0 225.000000 225.000000"
 preserveAspectRatio="xMidYMid meet">

<g transform="translate(0.000000,225.000000) scale(0.100000,-0.100000)"
fill="#000000" stroke="none">
<path d="M1238 2203 c-40 -99 -73 -163 -105 -201 -54 -65 -9 -37 62 40 63 68
100 137 90 168 -9 29 -34 25 -47 -7z"/>
<path d="M1143 2188 c-6 -7 -18 -42 -27 -78 -9 -36 -24 -75 -32 -88 -24 -36
-10 -37 20 -1 38 45 78 127 74 152 -4 25 -21 32 -35 15z"/>
<path d="M1043 2084 l2 -76 17 39 c10 21 18 55 18 76 0 30 -4 37 -19 37 -18 0
-20 -7 -18 -76z"/>
<path d="M1281 2092 c-18 -36 -83 -103 -146 -150 l-30 -22 30 12 c122 50 261
198 185 198 -13 0 -26 -13 -39 -38z"/>
<path d="M735 2070 c-152 -22 -278 -138 -331 -307 -61 -190 -48 -536 24 -652
87 -142 199 -228 337 -259 44 -11 195 -23 195 -16 0 1 -37 20 -82 42 -167 81
-258 199 -266 343 -6 104 17 182 68 231 22 20 53 39 70 43 l32 7 -29 18 c-70
43 -113 127 -120 235 -7 122 39 177 155 183 79 3 99 -5 82 -37 -30 -57 -3
-163 50 -195 l29 -17 -15 52 c-14 47 -14 56 0 93 24 61 52 91 71 76 29 -24 38
-78 25 -141 -14 -67 -35 -70 -25 -3 5 36 3 44 -9 44 -12 0 -16 -11 -16 -49 0
-27 -3 -57 -6 -66 -6 -13 -1 -16 22 -13 40 4 74 74 75 152 2 155 -150 261
-336 236z m-169 -133 c-20 -24 -48 -70 -63 -103 -26 -55 -28 -67 -28 -189 1
-116 4 -138 27 -199 l27 -69 -33 -39 c-18 -21 -39 -56 -46 -78 -7 -21 -16 -37
-20 -35 -17 11 -33 184 -27 305 9 195 49 313 138 402 60 60 72 62 25 5z"/>
<path d="M1255 1958 c-27 -18 -71 -41 -99 -51 l-51 -18 55 6 c68 7 144 31 160
50 13 15 7 45 -8 45 -5 0 -30 -14 -57 -32z"/>
<path d="M987 1853 c-11 -11 -8 -20 8 -20 8 0 15 6 15 14 0 14 -12 17 -23 6z"/>
<path d="M968 1635 c3 -16 7 -42 7 -57 0 -16 3 -28 7 -28 12 0 38 44 38 65 -1
16 -4 14 -15 -10 -7 -16 -14 -23 -15 -15 0 8 -7 29 -15 45 l-14 30 7 -30z"/>
<path d="M701 1426 c-43 -52 -54 -211 -20 -300 21 -58 39 -80 36 -47 0 11 -4
18 -8 15 -4 -2 -9 2 -12 9 -3 8 5 14 23 15 16 1 30 -3 33 -10 2 -7 3 -6 2 3
-1 9 2 23 6 32 6 9 5 27 -2 44 -7 15 -12 77 -13 138 -1 92 -4 110 -17 113 -9
1 -21 -4 -28 -12z m49 -277 c0 -15 -18 -19 -23 -6 -3 8 1 14 9 14 8 0 14 -4
14 -8z"/>
<path d="M990 1086 c0 -2 8 -10 18 -17 15 -13 16 -12 3 4 -13 16 -21 21 -21
13z"/>
<path d="M1026 1045 c-3 -9 0 -12 8 -9 17 7 39 -21 33 -43 -4 -14 -5 -13 -6 5
0 12 -6 22 -12 22 -6 0 -9 -7 -5 -15 6 -18 5 -18 -31 -5 -25 9 -26 9 -9 -4 21
-17 90 -33 174 -42 l57 -5 -68 30 c-38 16 -83 41 -102 55 -26 20 -34 23 -39
11z"/>
<path d="M1669 834 c50 -34 135 -44 167 -19 31 24 0 35 -97 32 -66 -1 -82 -5
-70 -13z"/>
<path d="M1477 674 c-17 -20 -50 -41 -85 -54 -67 -25 -82 -36 -82 -61 0 -19
28 -27 69 -20 32 5 83 59 111 115 12 26 21 48 19 50 -2 2 -17 -12 -32 -30z"/>
<path d="M1301 244 c-19 -13 -51 -29 -72 -34 -49 -13 -89 -46 -71 -58 18 -12
62 -3 94 20 22 15 97 100 86 97 -1 0 -18 -12 -37 -25z"/>
<path d="M1621 221 c-1 -72 16 -127 55 -167 29 -31 64 -45 64 -26 0 5 -20 34
-43 65 -39 49 -55 86 -71 162 -2 11 -4 -4 -5 -34z"/>
</g>
</svg>
